<svg xmlns="http://www.w3.org/2000/svg" width="640" height="400" viewBox="0 0 640 400" fill="none">
  <rect width="640" height="400" fill="#ffffff"/>
  <rect x="290" y="34" width="60" height="10" rx="4" fill="#4f46e5"/>
  <rect x="170" y="56" width="300" height="22" rx="4" fill="#111827"/>
  <rect x="200" y="90" width="240" height="9" rx="4" fill="#9ca3af"/>
  <rect x="40" y="128" width="270" height="48" rx="8" fill="#ffffff" stroke="#e5e7eb" stroke-width="2"/>
  <rect x="60" y="147" width="170" height="10" rx="4" fill="#111827"/>
  <rect x="282" y="145" width="14" height="14" rx="3" fill="#4f46e5"/>
  <rect x="330" y="128" width="270" height="48" rx="8" fill="#ffffff" stroke="#e5e7eb" stroke-width="2"/>
  <rect x="350" y="147" width="150" height="10" rx="4" fill="#111827"/>
  <rect x="572" y="145" width="14" height="14" rx="3" fill="#4f46e5"/>
  <rect x="40" y="188" width="270" height="48" rx="8" fill="#ffffff" stroke="#e5e7eb" stroke-width="2"/>
  <rect x="60" y="207" width="190" height="10" rx="4" fill="#111827"/>
  <rect x="282" y="205" width="14" height="14" rx="3" fill="#4f46e5"/>
  <rect x="330" y="188" width="270" height="48" rx="8" fill="#ffffff" stroke="#e5e7eb" stroke-width="2"/>
  <rect x="350" y="207" width="160" height="10" rx="4" fill="#111827"/>
  <rect x="572" y="205" width="14" height="14" rx="3" fill="#4f46e5"/>
  <rect x="40" y="248" width="270" height="48" rx="8" fill="#ffffff" stroke="#e5e7eb" stroke-width="2"/>
  <rect x="60" y="267" width="140" height="10" rx="4" fill="#111827"/>
  <rect x="282" y="265" width="14" height="14" rx="3" fill="#4f46e5"/>
  <rect x="330" y="248" width="270" height="48" rx="8" fill="#ffffff" stroke="#e5e7eb" stroke-width="2"/>
  <rect x="350" y="267" width="180" height="10" rx="4" fill="#111827"/>
  <rect x="572" y="265" width="14" height="14" rx="3" fill="#4f46e5"/>
  <rect x="40" y="308" width="270" height="48" rx="8" fill="#ffffff" stroke="#e5e7eb" stroke-width="2"/>
  <rect x="60" y="327" width="160" height="10" rx="4" fill="#111827"/>
  <rect x="282" y="325" width="14" height="14" rx="3" fill="#4f46e5"/>
  <rect x="330" y="308" width="270" height="48" rx="8" fill="#ffffff" stroke="#e5e7eb" stroke-width="2"/>
  <rect x="350" y="327" width="130" height="10" rx="4" fill="#111827"/>
  <rect x="572" y="325" width="14" height="14" rx="3" fill="#4f46e5"/>
</svg>
