<svg xmlns="http://www.w3.org/2000/svg" width="640" height="400" viewBox="0 0 640 400" fill="none">
  <rect width="640" height="400" fill="#ffffff"/>
  <rect x="260" y="48" width="120" height="10" rx="4" fill="#4f46e5"/>
  <rect x="150" y="72" width="340" height="26" rx="6" fill="#111827"/>
  <rect x="190" y="112" width="260" height="10" rx="4" fill="#9ca3af"/>
  <g stroke="#e5e7eb" stroke-width="2" fill="#ffffff">
    <rect x="40" y="160" width="176" height="192" rx="14"/>
    <rect x="232" y="160" width="176" height="192" rx="14"/>
    <rect x="424" y="160" width="176" height="192" rx="14"/>
  </g>
  <g fill="#e0e7ff">
    <rect x="60" y="180" width="40" height="40" rx="8"/>
    <rect x="252" y="180" width="40" height="40" rx="8"/>
    <rect x="444" y="180" width="40" height="40" rx="8"/>
  </g>
  <g fill="#111827">
    <rect x="60" y="240" width="120" height="14" rx="4"/>
    <rect x="252" y="240" width="120" height="14" rx="4"/>
    <rect x="444" y="240" width="120" height="14" rx="4"/>
  </g>
  <g fill="#9ca3af">
    <rect x="60" y="268" width="136" height="8" rx="4"/>
    <rect x="60" y="284" width="110" height="8" rx="4"/>
    <rect x="252" y="268" width="136" height="8" rx="4"/>
    <rect x="252" y="284" width="110" height="8" rx="4"/>
    <rect x="444" y="268" width="136" height="8" rx="4"/>
    <rect x="444" y="284" width="110" height="8" rx="4"/>
  </g>
</svg>
