<svg xmlns="http://www.w3.org/2000/svg" width="640" height="400" viewBox="0 0 640 400" fill="none">
  <rect width="640" height="400" fill="#ffffff"/>
  <rect x="200" y="16" width="240" height="368" rx="14" fill="#ffffff" stroke="#e5e7eb" stroke-width="2"/>
  <rect x="236" y="38" width="168" height="16" rx="4" fill="#111827"/>
  <rect x="232" y="64" width="176" height="8" rx="4" fill="#9ca3af"/>
  <rect x="224" y="88" width="60" height="8" rx="4" fill="#111827"/>
  <rect x="224" y="102" width="192" height="28" rx="6" fill="#ffffff" stroke="#e5e7eb" stroke-width="2"/>
  <rect x="224" y="142" width="70" height="8" rx="4" fill="#111827"/>
  <rect x="224" y="156" width="192" height="28" rx="6" fill="#ffffff" stroke="#e5e7eb" stroke-width="2"/>
  <rect x="224" y="196" width="56" height="8" rx="4" fill="#111827"/>
  <rect x="224" y="210" width="192" height="28" rx="6" fill="#ffffff" stroke="#e5e7eb" stroke-width="2"/>
  <rect x="224" y="246" width="150" height="6" rx="3" fill="#9ca3af"/>
  <rect x="224" y="264" width="12" height="12" rx="3" fill="#4f46e5"/>
  <rect x="244" y="266" width="60" height="8" rx="4" fill="#9ca3af"/>
  <rect x="308" y="266" width="76" height="8" rx="4" fill="#4f46e5"/>
  <rect x="224" y="290" width="192" height="32" rx="8" fill="#4f46e5"/>
  <rect x="224" y="338" width="192" height="2" fill="#e5e7eb"/>
  <rect x="246" y="356" width="104" height="8" rx="4" fill="#9ca3af"/>
  <rect x="356" y="356" width="40" height="8" rx="4" fill="#4f46e5"/>
</svg>
