<svg xmlns="http://www.w3.org/2000/svg" width="640" height="400" viewBox="0 0 640 400" fill="none">
  <rect width="640" height="400" fill="#ffffff"/>
  <rect x="200" y="28" width="240" height="344" rx="14" fill="#ffffff" stroke="#e5e7eb" stroke-width="2"/>
  <rect x="250" y="54" width="140" height="16" rx="4" fill="#111827"/>
  <rect x="236" y="80" width="168" height="8" rx="4" fill="#9ca3af"/>
  <rect x="224" y="108" width="60" height="8" rx="4" fill="#111827"/>
  <rect x="224" y="122" width="192" height="30" rx="6" fill="#ffffff" stroke="#e5e7eb" stroke-width="2"/>
  <rect x="224" y="166" width="60" height="8" rx="4" fill="#111827"/>
  <rect x="224" y="180" width="192" height="30" rx="6" fill="#ffffff" stroke="#e5e7eb" stroke-width="2"/>
  <rect x="224" y="224" width="12" height="12" rx="3" fill="#4f46e5"/>
  <rect x="244" y="226" width="60" height="8" rx="4" fill="#9ca3af"/>
  <rect x="336" y="226" width="80" height="8" rx="4" fill="#4f46e5"/>
  <rect x="224" y="252" width="192" height="32" rx="8" fill="#4f46e5"/>
  <rect x="224" y="306" width="192" height="2" fill="#e5e7eb"/>
  <rect x="244" y="328" width="90" height="8" rx="4" fill="#9ca3af"/>
  <rect x="340" y="328" width="56" height="8" rx="4" fill="#4f46e5"/>
</svg>
