<svg xmlns="http://www.w3.org/2000/svg" width="640" height="400" viewBox="0 0 640 400" fill="none">
  <rect width="640" height="400" fill="#ffffff"/>
  <rect x="40" y="90" width="170" height="22" rx="4" fill="#111827"/>
  <rect x="40" y="128" width="170" height="10" rx="4" fill="#9ca3af"/>
  <rect x="40" y="148" width="150" height="10" rx="4" fill="#9ca3af"/>
  <rect x="40" y="180" width="130" height="40" rx="8" fill="#ffffff" stroke="#d1d5db" stroke-width="2"/>
  <rect x="260" y="80" width="340" height="2" rx="0" fill="#e5e7eb"/>
  <rect x="260" y="102" width="220" height="12" rx="4" fill="#111827"/>
  <circle cx="588" cy="108" r="8" fill="#4f46e5"/>
  <rect x="260" y="146" width="340" height="2" rx="0" fill="#e5e7eb"/>
  <rect x="260" y="168" width="220" height="12" rx="4" fill="#111827"/>
  <circle cx="588" cy="174" r="8" fill="#4f46e5"/>
  <rect x="260" y="212" width="340" height="2" rx="0" fill="#e5e7eb"/>
  <rect x="260" y="234" width="220" height="12" rx="4" fill="#111827"/>
  <circle cx="588" cy="240" r="8" fill="#4f46e5"/>
  <rect x="260" y="278" width="340" height="2" rx="0" fill="#e5e7eb"/>
  <rect x="260" y="300" width="220" height="12" rx="4" fill="#111827"/>
  <circle cx="588" cy="306" r="8" fill="#4f46e5"/>
  <rect x="260" y="344" width="340" height="2" rx="0" fill="#e5e7eb"/>
</svg>
