<svg xmlns="http://www.w3.org/2000/svg" width="640" height="400" viewBox="0 0 640 400" fill="none">
  <rect width="640" height="400" fill="#ffffff"/>
  <rect x="200" y="30" width="240" height="22" rx="4" fill="#111827"/>
  <rect x="32" y="80" width="176" height="250" rx="12" fill="#ffffff" stroke="#e5e7eb" stroke-width="2"/>
  <rect x="50" y="104" width="140" height="9" rx="4" fill="#6b7280"/>
  <rect x="50" y="124" width="130" height="9" rx="4" fill="#6b7280"/>
  <rect x="50" y="144" width="120" height="9" rx="4" fill="#6b7280"/>
  <rect x="50" y="164" width="100" height="9" rx="4" fill="#6b7280"/>
  <circle cx="66" cy="290" r="16" fill="#e5e7eb"/>
  <rect x="90" y="280" width="80" height="10" rx="4" fill="#111827"/>
  <rect x="90" y="296" width="90" height="8" rx="4" fill="#9ca3af"/>
  <rect x="232" y="80" width="176" height="250" rx="12" fill="#ffffff" stroke="#e5e7eb" stroke-width="2"/>
  <rect x="250" y="104" width="140" height="9" rx="4" fill="#6b7280"/>
  <rect x="250" y="124" width="130" height="9" rx="4" fill="#6b7280"/>
  <rect x="250" y="144" width="120" height="9" rx="4" fill="#6b7280"/>
  <rect x="250" y="164" width="100" height="9" rx="4" fill="#6b7280"/>
  <circle cx="266" cy="290" r="16" fill="#e5e7eb"/>
  <rect x="290" y="280" width="80" height="10" rx="4" fill="#111827"/>
  <rect x="290" y="296" width="90" height="8" rx="4" fill="#9ca3af"/>
  <rect x="432" y="80" width="176" height="250" rx="12" fill="#ffffff" stroke="#e5e7eb" stroke-width="2"/>
  <rect x="450" y="104" width="140" height="9" rx="4" fill="#6b7280"/>
  <rect x="450" y="124" width="130" height="9" rx="4" fill="#6b7280"/>
  <rect x="450" y="144" width="120" height="9" rx="4" fill="#6b7280"/>
  <rect x="450" y="164" width="100" height="9" rx="4" fill="#6b7280"/>
  <circle cx="466" cy="290" r="16" fill="#e5e7eb"/>
  <rect x="490" y="280" width="80" height="10" rx="4" fill="#111827"/>
  <rect x="490" y="296" width="90" height="8" rx="4" fill="#9ca3af"/>
</svg>
