<svg xmlns="http://www.w3.org/2000/svg" width="640" height="400" viewBox="0 0 640 400" fill="none">
  <rect width="640" height="400" fill="#ffffff"/>
  <rect x="270" y="32" width="100" height="10" rx="4" fill="#4f46e5"/>
  <rect x="160" y="54" width="320" height="24" rx="6" fill="#111827"/>
  <g stroke="#e5e7eb" stroke-width="2" fill="#ffffff">
    <rect x="40" y="104" width="364" height="168" rx="14" fill="#f5f6fb"/>
    <rect x="416" y="104" width="184" height="78" rx="14"/>
    <rect x="416" y="194" width="184" height="78" rx="14"/>
    <rect x="40" y="284" width="176" height="96" rx="14"/>
    <rect x="228" y="284" width="372" height="96" rx="14"/>
  </g>
  <rect x="60" y="122" width="150" height="14" rx="4" fill="#111827"/>
  <rect x="60" y="146" width="120" height="8" rx="4" fill="#9ca3af"/>
  <rect x="200" y="166" width="203" height="105" rx="8" fill="#e5e7eb"/>
  <g fill="#e0e7ff">
    <rect x="432" y="118" width="24" height="24" rx="6"/>
    <rect x="432" y="208" width="24" height="24" rx="6"/>
    <rect x="56" y="298" width="24" height="24" rx="6"/>
  </g>
  <g fill="#111827">
    <rect x="432" y="152" width="110" height="10" rx="4"/>
    <rect x="432" y="242" width="110" height="10" rx="4"/>
    <rect x="56" y="332" width="110" height="10" rx="4"/>
    <rect x="248" y="302" width="130" height="10" rx="4"/>
  </g>
  <g fill="#9ca3af">
    <rect x="432" y="168" width="140" height="6" rx="3"/>
    <rect x="432" y="258" width="140" height="6" rx="3"/>
    <rect x="56" y="350" width="130" height="6" rx="3"/>
    <rect x="248" y="322" width="140" height="6" rx="3"/>
    <rect x="248" y="334" width="110" height="6" rx="3"/>
  </g>
  <rect x="420" y="298" width="179" height="81" rx="8" fill="#e5e7eb"/>
</svg>
